<svg xmlns="http://www.w3.org/2000/svg" viewBox="0 0 760.72 277.84"><defs><style>.a{fill:#b17fa5;}.b{fill:#966c8f;}.c{fill:#d0849f;}.d{fill:#d07bae;}.e{fill:#af68a8;}.f{fill:#cf7bcb;}.g{fill:#9582a9;}.h{fill:#d06aa9;}</style></defs><path class="a" d="M541.77,713c-27,.67-104-9.45-116.09-10.57-37.26-3.45-74.11-9.37-110.86-16.11-23.58-4.33-47.39-7.59-70.38-14.64-22-6.74-42.73-16.65-58.87-33-15.18-15.34-26.7-48.34-2-72.12,7.61-7.32,16.94-12.68,25.52-18.76,29.87-21.15,58.15-44.67,90.56-62.16,37.43-20.19,77.25-33.51,119-41.35,33.37-6.26,67-10.48,100.94-8.75,48.91,2.49,97.36,7.08,145.32,19.26,43.47,11,86.79,23.23,131.06,31.1,9.68,1.72,19.42,3.3,29.2,4.27,24.31,2.41,46.24,12.38,68.52,21.18,12.06,4.76,21.14,13.83,29.2,23.51,9,10.84,9.16,26.51,1.37,39-4.15,6.65-8.92,13-15.24,17.71-27.7,20.83-56.07,40.16-89.7,51-37.49,12.09-74.13,26.89-111.74,38.59-33.71,10.48-68.06,19.12-102.48,27.07C584.48,713.05,563,712.23,541.77,713Zm-12-6.62c37.55.78,62.46-4.65,87.23-10,33.36-7.26,64.54-21.53,97-31.74,27.88-8.77,55.14-19.45,83.4-27.13,20.75-5.63,41-12.74,58.39-26a183.67,183.67,0,0,1,29.72-18c16-8,26.59-20.34,30.36-38.24,2.53-12-.24-20.66-10.47-27.38A116.58,116.58,0,0,0,871,512.44c-16.57-4.39-33.66-5.78-50.43-9-27.63-5.37-55.79-9-82.21-19s-52.6-20.45-80.42-26.09c-24.39-4.93-48.71-11.08-73.56-12.13a833.23,833.23,0,0,0-141.21,5.92c-32.26,4.12-64,10.49-94.48,22.43-24.68,9.67-49.38,19.11-71.63,33.87-11.2,7.42-20.61,16.93-30.93,25.37-14.48,11.86-30.76,21-46.2,31.44-16,10.79-26.65,25.42-16.6,48.38,7.13,16.29,16.66,29.67,35.09,35.36,19.32,6,39,10,58.77,13.64,20.78,3.82,42.15,4.29,62.7,8.33,37.72,7.41,75.23,16,113,23.46C482.25,700.18,511.65,705.38,529.74,706.38Z" transform="translate(-169.21 -435.19)"/><path class="b" d="M529.74,706.38c-18.09-1-47.49-6.2-76.87-12-37.73-7.48-75.24-16.05-113-23.46-20.55-4-41.92-4.51-62.7-8.33-19.79-3.63-39.45-7.67-58.77-13.64-18.43-5.69-28-19.07-35.09-35.36-10-23,.6-37.59,16.6-48.38,15.44-10.42,31.72-19.58,46.2-31.44,10.32-8.44,19.73-18,30.93-25.37,22.25-14.76,46.95-24.2,71.63-33.87,30.48-11.94,62.22-18.31,94.48-22.43a833.23,833.23,0,0,1,141.21-5.92c24.85,1,49.17,7.2,73.56,12.13,27.82,5.64,54,16,80.42,26.09s54.58,13.66,82.21,19c16.77,3.25,33.86,4.64,50.43,9a116.58,116.58,0,0,1,34.36,15.44c10.23,6.72,13,15.39,10.47,27.38-3.77,17.9-14.35,30.27-30.36,38.24a183.67,183.67,0,0,0-29.72,18c-17.4,13.24-37.64,20.35-58.39,26-28.26,7.68-55.52,18.36-83.4,27.13-32.47,10.21-63.65,24.48-97,31.74C592.2,701.73,567.29,707.16,529.74,706.38Zm23-202.87c-2.28-2.33-2-5.57-2.87-8.37-6.52-22.27-5.78-24.41-30.45-16.68-11.12,3.48-11.71,6.48-4.18,15.66,5,6.17,10.63,12,13.21,19.86A222,222,0,0,0,446,494.35c-29-1.16-56.69,5.46-83.4,15.75C346.11,516.44,331.69,525.56,329,546c-2.6,19.71,3.94,35.31,19.17,46.94,29.61,22.59,63.77,36.59,98.28,49.64,20.33,7.69,41.78,11.66,63.13,14.88,13.83,2.08,28.92,3.87,39.76-10,3.29-4.21,8.5-4.5,13.37-.17,20.15,17.9,44,17.61,68.52,13.22,14.11-2.51,26.39-9.86,39.61-14.73,27.43-10.09,52.63-24.28,76.07-41.62a33.13,33.13,0,0,0,9.28-10.83c17.94-32.57-3.22-65.56-29.83-79.76-21.53-11.48-45.61-12-69.21-12.92-25-1-49.67,3.09-74,9,5.38-6.44,13.18-8.89,20.42-12.21,13.07-6,26.21-11.82,39.31-17.75,3.44-1.56,6-3.8,5.55-8.07-.48-4.64-4.07-6.16-7.72-7.29-2.36-.73-5-.69-7.45-1-20.15-2.72-38.41,1.58-54.91,13.76C568.3,484.5,560.84,494.25,552.79,503.51Zm-266,98.5c-4.34,0-10.32,4.25-12.24,8.22-2.44,5,.66,8.26,3.81,11.14a119.25,119.25,0,0,0,54.13,28.71c9.47,2.22,18-3.51,17.93-12.71-.11-12-1.52-24-7.44-35-2.7-5-6.43-8.35-12.56-8s-9.75,4-11.51,9.4-4.07,6.93-9.09,3.53C302.74,602.54,294.14,604.13,286.75,602ZM776,542.25v2.47c0,16,.7,16.62,15.13,14.22.23,0,.49.11.74.13,12.56.68,24.28-3.43,36.11-6.62a48.51,48.51,0,0,0,18.72-9.52c3.91-3.26,6.91-7,4.94-12.36-1.75-4.74-6.5-5.49-10.69-5.76-12.16-.77-24.31-.6-35.11,6.2-4.5,2.84-6.7,2.72-7.94-3.16-.94-4.45-3.61-9-9-8.82-5.21.18-8.42,4.07-10.51,8.68A29.32,29.32,0,0,0,776,542.25Z" transform="translate(-169.21 -435.19)"/><path class="c" d="M583.17,509.65c24.31-5.89,49-9.94,74-9,23.6.9,47.68,1.44,69.21,12.92,26.61,14.2,47.77,47.19,29.83,79.76a33.13,33.13,0,0,1-9.28,10.83c-23.44,17.34-48.64,31.53-76.07,41.62-13.22,4.87-25.5,12.22-39.61,14.73-24.56,4.39-48.37,4.68-68.52-13.22-4.87-4.33-10.08-4-13.37.17-10.84,13.87-25.93,12.08-39.76,10-21.35-3.22-42.8-7.19-63.13-14.88-34.51-13.05-68.67-27.05-98.28-49.64C332.94,581.33,326.4,565.73,329,546c2.69-20.46,17.11-29.58,33.58-35.92,26.71-10.29,54.4-16.91,83.4-15.75A222,222,0,0,1,528.5,514c2.48,2.78,5,5.5,7.42,8.36,3.49,4.17,7.33,6,12.32,2.45a18.26,18.26,0,0,0,14-3.47C568.86,516.68,576,513.11,583.17,509.65Zm-179.07,12c-3.21,0-5.75-.16-8.26,0-22.58,1.67-24,3.06-22.16,24.55.88,10,4.6,19,13.59,24.86,8.63,5.67,14.25,3.71,14.83-6.54.77-13.61,7-23.13,18.22-30,2.25-1.39,3.81-3.44,3.16-6.33-.6-2.7-2.45-4.25-5.12-5C413.45,522,408.51,521.14,404.1,521.67Zm21.12,79.19a10.84,10.84,0,0,0-11.09-11c-5.4,0-10.45,1.18-11.51,7.36-.91,5.3,8.07,12.32,14.95,12.33C423,609.57,425.34,606.72,425.22,600.86Z" transform="translate(-169.21 -435.19)"/><path class="d" d="M286.75,602c7.39,2.12,16,.53,23,5.28,5,3.4,7.36,1.77,9.09-3.53s5.33-9.09,11.51-9.4,9.86,3,12.56,8c5.92,10.92,7.33,23,7.44,35,.08,9.2-8.46,14.93-17.93,12.71a119.25,119.25,0,0,1-54.13-28.71c-3.15-2.88-6.25-6.12-3.81-11.14C276.43,606.26,282.41,602,286.75,602Z" transform="translate(-169.21 -435.19)"/><path class="e" d="M583.17,509.65c-7.2,3.46-14.31,7-20.89,11.67a18.22,18.22,0,0,1-14,3.46c-2.15-3.76-1.82-7.41.15-11.2,1.68-3.25,3-6.71,4.4-10.07,8.05-9.26,15.51-19,25.58-26.45,16.5-12.18,34.76-16.48,54.91-13.76,2.49.34,5.09.3,7.45,1,3.65,1.13,7.24,2.65,7.72,7.29.44,4.27-2.11,6.51-5.55,8.07-13.1,5.93-26.24,11.77-39.31,17.75C596.35,500.76,588.55,503.21,583.17,509.65Z" transform="translate(-169.21 -435.19)"/><path class="f" d="M776,542.25a29.32,29.32,0,0,1,2.39-14.54c2.09-4.61,5.3-8.5,10.51-8.68,5.39-.18,8.06,4.37,9,8.82,1.24,5.88,3.44,6,7.94,3.16,10.8-6.8,22.95-7,35.11-6.2,4.19.27,8.94,1,10.69,5.76,2,5.32-1,9.1-4.94,12.36A48.51,48.51,0,0,1,828,552.45c-11.83,3.19-23.55,7.3-36.11,6.62-.25,0-.51-.17-.74-.13-14.43,2.4-15.12,1.75-15.13-14.22Z" transform="translate(-169.21 -435.19)"/><path class="g" d="M552.79,503.51c-1.45,3.36-2.72,6.82-4.4,10.07-2,3.79-2.3,7.44-.15,11.2-5,3.59-8.83,1.73-12.32-2.44-2.38-2.86-4.94-5.58-7.42-8.36-2.58-7.82-8.17-13.69-13.21-19.86-7.53-9.18-6.94-12.18,4.18-15.66,24.67-7.73,23.93-5.59,30.45,16.68C550.75,497.94,550.51,501.18,552.79,503.51Z" transform="translate(-169.21 -435.19)"/><path class="h" d="M404.1,521.67c4.41-.53,9.35.29,14.26,1.58,2.67.7,4.52,2.25,5.12,5,.65,2.89-.91,4.94-3.16,6.33-11.25,6.91-17.45,16.43-18.22,30-.58,10.25-6.2,12.21-14.83,6.54-9-5.9-12.71-14.85-13.59-24.86-1.89-21.49-.42-22.88,22.16-24.55C398.35,521.51,400.89,521.67,404.1,521.67Z" transform="translate(-169.21 -435.19)"/><path class="h" d="M425.22,600.86c.12,5.86-2.18,8.71-7.65,8.69-6.88,0-15.86-7-14.95-12.33,1.06-6.18,6.11-7.4,11.51-7.36A10.84,10.84,0,0,1,425.22,600.86Z" transform="translate(-169.21 -435.19)"/></svg>