<svg xmlns="http://www.w3.org/2000/svg" viewBox="0 0 167.65 388.37"><defs><style>.a{fill:#6f6f7b;}.b{fill:#98d1d9;}.c{fill:#717580;}.d{fill:#bbb0ce;}.e{fill:#aceeec;}.f{fill:#acefec;}</style></defs><path class="a" d="M133.29,244.16c6.57,1.28,13.16,2.46,19.7,3.85,13.56,2.88,19.07,17.25,10.72,28.17a9.2,9.2,0,0,0-2.33,6c.13,21.37-4.24,42-10.33,62.34a103.13,103.13,0,0,1-15,29.87c-6.42,9.12-16.82,11.26-26.87,12.67A149.69,149.69,0,0,1,64,386.13c-17.12-2.81-28.52-12-34.2-29.09-8.08-24.34-16-48.7-20.2-74-1.07-6.44-2.19-12.08-5.83-17.75-6.89-10.71,2.93-21.47,13.72-23,14.49-2.12,29.23-1.48,43.87-1.7,4.88,1.83,6.58,5,4.21,9.93-6.69,2.74-13.7,1.08-20.55,1.41-5.93.28-11.89-.16-17.82.2-3.83.23-8,1-8.51,5.56-.55,4.85,3.85,6,7.34,6.89,9.12,2.37,18.43,4.08,27.87,3.92,20.52-.34,41.07,1.18,61.58-1.18,7.3-.83,14.73,2.15,22.13-.1,3-.93,6.85-1,7.13-5.2.31-4.55-3.5-5.48-6.83-6.51-2.79-.86-6-.41-8.4-2.59C128,248.72,128.79,245.63,133.29,244.16Z"/><path class="b" d="M65.66,249.56c-1.44-3.34-3-5.61-4.34-9,.34-4.22-2.86-6.71-4.81-9.77-6.85-10.68-15.59-19.92-22.94-30.23-3.24-4.55-7.32-7.84-13.13-8.78-4.69-.77-9.07-2.48-12.19-6.48C4.71,180.76,5.09,175,10,172.11c3.7-2.18,1.59-4.08.71-6.12A139.27,139.27,0,0,1,1,134.78c-1.41-8.19-1.18-16.4-.54-24.55.59-7.53,5.62-13.42,11-14.49,6.8-1.36,11.77,1.27,16.45,8.78,4.13,6.63,6.29,14.06,7.88,21.56,3.38,15.88,8.82,31,15.2,45.86,2.48,1.74,2.77,4.83,4,7.29-1-2.36-2.14-4.62-1.27-7.31-1.42-13.28-4.12-26.39-5.08-39.75-.32-4.45-1-8.94-.69-13.36,1-16.06-2.57-31.54-5.18-47.19-2-11.87-5.36-23.77-2.53-36,2.74-11.92,9.84-15.55,20.43-10,3,1.56,3.91.26,5.23-1.77,2.83-4.37,5.67-8.75,8.67-13,6-8.52,14-12.41,20.53-10.14,6.81,2.35,10.7,9.82,11,20.24.52,17.12-4.47,33.32-7.85,49.79a34,34,0,0,0-1.11,5.06c-.13,2.72-2.86,5.7-1,7.81,1.68,1.93,3.9-1.57,6.43-1.53,5.19.07,7.39,2.14,6.25,7.42-1.33,6.17-4.43,11.59-8.11,16.62-6.22,8.49-10.56,17.2-6.65,28.22,2.49,7.06,2.17,14.76,2.57,22.08.73,13.39,2.19,26.67,3.41,40,1.44,15.65-2,30.59-7.26,45.21-.15,3.59-1.41,7-1.85,10.52-2.3,8.74-12.72,14.11-20.59,10.25C65.12,259.75,64.37,254.89,65.66,249.56Z"/><path class="b" d="M133.29,244.16a14.94,14.94,0,0,1-3.2,8.48c-4.72,7-10.09,12.65-19.76,11-6.64-1.12-9.35-3.82-10-11.22,2-4.43,6.26-7.18,8.56-11.41,5.83-12,5.17-24.35,1.6-36.76-4.86-16.93-6.18-34-2.89-51.42a36.37,36.37,0,0,1,4.87-12.35c2.59-4.24,5.71-6.65,10.86-6s7.58,4.18,9.56,8.31c2.06,4.33,2.05,9.18,2.81,13.77a83.66,83.66,0,0,1,1.52,13.24c0,15.15,2.35,30.19,1.71,45.37C138.47,225.15,135,234.46,133.29,244.16Z"/><path class="c" d="M108.85,241c-3.23,5.07-3.91,7.45-7.25,10.19-3.91,2.69-7.78,3.14-11.58-.21a21.81,21.81,0,0,1,2.8-9.45C98.2,242.46,103.51,241.15,108.85,241Z"/><path class="b" d="M53.78,171.92c1.35,2.39,2.18,4.87,1.27,7.65-3-1.67-3.43-4.69-4-7.63Z"/><path class="d" d="M90,251l11.58.21c-.68,4.83,1.6,9.61,6.42,10.08,5,.5,8.82,1.06,15.17-3.67,2.75-2,3.67-2.88,6.9-5,4.71,0,9.33-.15,13.69,2.42,2.92,1.72,4.33,3.72,4.22,7.13a6.13,6.13,0,0,1-5.29,6.29c-5.06,1-10.28,2.89-15.36,1.86-7.48-1.52-14.71-.24-22.09.12-12.37.59-24.79.24-37.19.45-13.15.23-26.22-.48-39.1-3.26a53.3,53.3,0,0,1-8.49-2.58c-2.88-1.15-5.27-3.08-5.11-6.6.18-3.82,2.21-6.43,5.77-7.94,2.39-1,4.86-.85,7.32-.86q18.6-.09,37.2-.11c.1.22.23.43.31.66,4.31,12.3,4.3,12.26,17.74,10,2.48-.41,2.93-1.87,4.42-4A8.92,8.92,0,0,0,90,251Z"/><path class="e" d="M72.36,197.45c3,.64,4.17,2.22,3.57,4.87-.82,3.56-1.83,7.08-2.66,10.64-.43,1.8-1,3.5-3.16,3.38-1.84-.11-3-1.64-3.71-3.22-1.06-2.3,1.68-12.87,3.69-14.47A12,12,0,0,1,72.36,197.45Z"/><path class="e" d="M12.23,142.91a60.27,60.27,0,0,1,2.82-8.63c.94-2,3.06-3.47,5.59-2,2.06,1.22,2.25,3.1,1.25,5.17-1.18,2.46-2.35,4.87-2.33,7.76,0,2.56-1.34,4.42-4.15,4S12.19,146.54,12.23,142.91Z"/><path class="e" d="M69.87,125c-2.17,2.76-1.9,6.79-3.81,9.92-1.17,1.93-3,3.45-5.55,2.08-2-1.12-2.3-2.93-1.51-5.08,1-2.75,1.72-5.64,2.86-8.34,1-2.48,3.34-2.75,5.62-2.15A3.09,3.09,0,0,1,69.87,125Z"/><path class="f" d="M82.76,148.62a3.07,3.07,0,0,1,2.31,3.07,30.26,30.26,0,0,0,1.4,8.64c.46,1.35.38,3-1.3,3.78a4.06,4.06,0,0,1-3.55-.08c-4-1.93-5.11-11.42-1.71-14.33A3.08,3.08,0,0,1,82.76,148.62Z"/><path class="f" d="M56.82,48.06c.18,4.13-3.89,11.56-6.44,11.59-2.37,0-3.63-1.37-3.76-3.69-.23-4.27,4.1-11,7-11C55.77,44.89,56.87,45.89,56.82,48.06Z"/><path class="e" d="M74.74,64.26c.23-2.63-.78-6.16,3.64-5.77,4.19.38,3.81,3.81,3.84,6.79,0,2.76.2,6.19-3.52,6.18C73.85,71.44,75,67.21,74.74,64.26Z"/><path class="f" d="M121,181.1c-.09-3.21.43-6,3.62-5.87,4.81.25,3.92,5,5.06,8,.84,2.18-.6,3.65-3.17,3.73C122,187.07,121.53,183.84,121,181.1Z"/></svg>