<svg xmlns="http://www.w3.org/2000/svg" viewBox="0 0 552.37 681.34"><defs><style>.a{fill:#24172e;}.b{fill:#d0bddd;}.c{fill:#fe68a5;}</style></defs><path class="a" d="M458.35,559.2c-23.5-13.25-46.16-28.13-71.75-37.38-3-1.08-5.89-2.4-8.77-3.76-15.54-7.36-16.55-16.81-2.65-26.67,6.73-4.77,13.84-9,20.76-13.56,1.84-1.21,4-2,5.22-4.25-4.66-3.56-10.4-4.45-15.83-6-6.73-1.95-13.47-3.9-19.47-7.63-9.25-5.76-9.14-14.22.71-18.87s20.05-8,30-12.18c4-1.69,8.39-2.86,12.62-6.27-6.29-4.66-12.33-9-18.24-13.57a69.4,69.4,0,0,1-8.63-7.49c-6.57-7-6.07-12.74,1.77-18.31a192.67,192.67,0,0,1,25.42-15.06,314.5,314.5,0,0,0,28.77-16.83c4-2.6,6-5.6,6.9-10.51,6.51-35.58,18.6-69.32,34.51-101.74a75,75,0,0,1,3.75-6.65c7.55-12,18.72-13.62,29.55-4.27,5,4.29,7.78,10,10.34,15.84,7.18,16.48,10.27,34,13.64,51.54,3.46,18,3.45,18.38,21.54,16.26a199.38,199.38,0,0,1,32.37-1.39c5.66.25,8.42-1.84,11-6.71a521,521,0,0,1,42.84-66.52,53.3,53.3,0,0,1,5.63-6.46c13.38-12.86,26.59-10.87,35.89,5.36,3.52,6.14,5.47,12.87,7,19.7,5.55,24.56,10.1,49.26,10,74.57-.06,9.71,3.82,16.78,12.92,20.89,13.4,6.06,25,15.05,37.19,23.15,13.06,8.71,26.91,15.63,42,19.84,4.16,1.16,8.08,2.33,8.89,7.33.76,4.76-2,7.73-5.42,10.38-8.74,6.71-17.41,13.49-25.85,21.11,8.14,1.23,15.55,3.62,23.13,5.27,4.55,1,8.78,2.35,10,7.5,1.26,5.4-1.58,9.13-5.6,12.23q-13.21,10.2-26.44,20.41c-1,.77-2.18,1.35-2.33,3.12,6.65,2.35,14,2.58,20.49,5.84,10.13,5.09,10.7,12.07,1.06,18.34-9.35,6.07-19.43,10.82-29.68,15.16-17,7.19-34,14.17-51,21.24-4,2.51-7.47.42-10.6-1.67-35.88-24-76-26.08-117.23-23.28-32.34,2.19-62.2,11.78-90.46,27.37-8.88,4.89-18.4,8.6-26.82,14.43C464.76,560.91,461.45,563.38,458.35,559.2Z" transform="translate(-254.05 -222.15)"/><path class="a" d="M376.55,680.11c-3.8,21.57-9.45,42.71-15,63.87-2,7.6-4.66,15.06-3.1,23.32,3.1,16.35,21.26,31.93,37.8,32.41,6,.17,6-4,6.13-7.47.56-13.47,3.76-26.4,7.54-39.19,10.55-35.73,22-71,47.66-99.57a9.93,9.93,0,0,0,1.24-2.53c3.71-.9,5.88,1.9,8.4,3.64,25.92,17.9,51.72,36,75.42,56.84,18.11,15.94,37.94,30,52.72,49.58,6,8,12.12,7.07,17.17-1.57,3.06-5.23,6.15-10.42,9.69-15.33s7-5,10.4.16c2.44,3.73,4.54,7.69,7.07,11.35,5.41,7.84,10.89,7.79,16.48,0,3.57-5,4.85-11.06,7.7-16.39,4.3-8,6.25-8.57,12.62-2.42,6.15,5.94,12.43,11.74,18.5,17.77-1.87,13.06,3.58,23.91,10.06,34.61,7.07,11.68,13.21,23.89,22,34.49,5.7,6.85,7.38,14.83,2.78,23.07s-11.46,13.38-21.65,12.81a74.37,74.37,0,0,1-12.27-1.68c-2.2,2.14-.34,4.2.14,6.14,3,11.9-2,19.71-14.31,22-21.07,4-40.37-.9-58.26-12.18-4.83-3.05-9.48-6.4-14.15-9.72a45.43,45.43,0,0,0-31.22-8.59c2.82,5.66,6.58,10.15,10.48,14.53,6.08,6.83,7.84,14.46,3.82,22.88-3.95,8.27-11.17,10.53-19.75,10.53-5.87,0-11.64-.94-16.65-3.54-29.22-15.13-60.35-16-92.12-13.38-9.49.8-19.06,1.16-28.59,1-17.87-.21-25.94-8.14-25.18-25.86.32-7.37-3.66-7.33-8.45-8.19-33.38-6-64.53-17.49-90.15-40.42-39.12-35-59.34-86.08-57.34-139.16.86-2,2.08,4.16,4.41,5.63,2.13,2,2.89,4.88,4.25,7.38,6.61,12.21,15.26,15.61,27.52,9.5,7.42-3.7,9.75-.77,10.87,5.78,1.46,8.53,3.84,16.75,8.68,24,5.94,8.93,12.08,9.78,20.8,3.76,17.45-12,31.1-27,38-47.49,1.08-3.22,6.58-29.18,10.81-29.84C381.92,653.85,377.12,678.19,376.55,680.11Z" transform="translate(-254.05 -222.15)"/><path class="b" d="M695,754.59c-4.92-.4-7.66-3.81-10.69-7.19-4.41-4.93-9.32-9.4-14.66-14.7-3.75,8.06-7,15.53-10.64,22.75-6,11.74-14.14,12.24-21.34,1.4-3.32-5-6.23-10.26-9.73-16.07A113.71,113.71,0,0,0,615.61,759c-6.94,12.85-14.23,14-23,2.78-19.23-24.58-45-41.82-68-62.16C504,681.44,480,668.11,458.79,651c-13-15.3-15.72-32.91-12.85-52.28,1.71-11.49,5.79-21.92,10.69-32.19a14.27,14.27,0,0,0,1.72-7.28c2.71.81,4.72-.43,6.93-1.87,18.4-12.07,38.35-21.14,58.67-29.31,31.53-12.67,64.34-15.14,98.19-13.67,7.5.33,14.07,0,20.92,1.42,23.9,4.89,42.16,11.17,60.91,22.94,2.68,1.68,5.11,3.86,8.61,3.47,2.66,11.36,8.4,21.75,10.25,33.41,2.23,14,7.88,27.5,6.89,42-2.06,30.17-7.3,59.62-20.38,87.22-2.18,4.6-4.41,9.17-6.78,13.67C696.59,729.81,691.66,741.32,695,754.59Z" transform="translate(-254.05 -222.15)"/><path class="b" d="M374.64,675.78c-1.48,3.19-2.34,6.51-4.68,10.37-11.59,19.17-22.88,35.45-40.45,47.88-7.79,5.51-13.75,4.24-19.58-3.42a55.55,55.55,0,0,1-10.28-23.28c-.77-4-1.38-7.93-2.1-12.09-20,12.51-33.07,7.25-40-15.64a13.11,13.11,0,0,0-3.34-5.62c.16-14.79,5.05-28.64,9.32-42.45,7.85-25.38,23.45-45.6,45-60.93A55.34,55.34,0,0,1,336.11,561c20.6-1.68,35.05,8.82,42,29.87,5.86,17.72,7.14,35.07,4.19,54.35C381.85,648.36,377.83,667.16,374.64,675.78Z" transform="translate(-254.05 -222.15)"/><path class="b" d="M729.24,378.19c-2.84-4.67-7.78-7.43-12.41-10.1a56.39,56.39,0,0,0-10.32-4.4,66.33,66.33,0,0,0-8.25-1.74,48.57,48.57,0,0,0-17,.81c-20.17,4.51-35.36,15.54-45.43,34.81-4.57,8.49-8.49,16.74-12.71,25.11-8.64,17.13-9.76,13.48,6.33,23.12,20,12,38.93,10.51,57.41-2.94,17.72-12.9,29.44-30.41,37.29-50.5C726,387.72,733.05,384.45,729.24,378.19Z" transform="translate(-254.05 -222.15)"/><path class="c" d="M635.88,397.57c10.07-19.27,25.26-30.3,45.43-34.81a48.57,48.57,0,0,1,17-.81,66.33,66.33,0,0,1,8.25,1.74c15,17.7,14.26,41.85-1.81,58.48C691,436.34,665.32,437.67,649,424.5,640.62,417.76,635,409.09,635.88,397.57Z" transform="translate(-254.05 -222.15)"/><path class="b" d="M556.43,434.27c-3.44-6.31-6.64-12.75-9.94-19.14-10.6-29-29.31-48.56-61.28-52.71-15.21-.71-27.28,6.18-38.19,15.83-2.34,2.06-3.53,4.43-1.85,7.55,5.85,10.82,11,22.1,17.65,32.4,9.94,15.38,22.68,28.31,40.18,35,19.72,7.55,36.39-1.06,52.41-11.46C558.4,439.8,558,437.17,556.43,434.27Z" transform="translate(-254.05 -222.15)"/><path class="c" d="M485.21,362.42c32,4.15,50.68,23.71,61.28,52.71-6.35,13.14-21.17,20-39.38,18.17-16.48-1.64-29.9-14-34.75-31.92C468.5,387.11,474,370.52,485.21,362.42Z" transform="translate(-254.05 -222.15)"/><path class="b" d="M585,487.71c-1.33,1.81-2.09,2.48-2.4,3.32-4.75,12.68-15.79,15.57-27.27,11-12.35-5-20.08-19.81-16.49-31,1.78-5.53,6.14-8.8,11.14-11.15,11.08-5.22,26.18-3.1,36.88,5.28,5.85-6,13.36-7.57,21.58-7.41,14.31.27,21.58,9,21.15,21.55-.4,11.85-12.6,21.07-24.82,19.72A26.82,26.82,0,0,1,585,487.71Z" transform="translate(-254.05 -222.15)"/><path class="b" d="M681.55,320.57c0,3.62.16,5.54,0,7.43-.91,9.12-5.95,12.27-14.45,9.09a21.7,21.7,0,0,1-2.56-1.26,213.77,213.77,0,0,0-34.88-15c-6.94-2.29-9.9-8-6.32-13.71,9.91-15.86,19.25-32.29,33.91-44.55,11-9.19,18.63-6.55,21.43,7.4a77,77,0,0,1,1.52,12.28C680.61,295.6,679.66,309,681.55,320.57Z" transform="translate(-254.05 -222.15)"/><path class="b" d="M517.08,320c0,6.67-1.66,11.14-6.37,13.46-11,5.47-22.26,10.61-33.44,15.81-3.57,1.67-7.28,2.6-10.67-.41s-2.58-6.71-1.82-10.58a358.13,358.13,0,0,1,16.35-58.48c.9-2.37,1.74-4.78,2.83-7.06,2.13-4.41,4.67-8.39,10.45-8.26,5.63.12,8.36,3.92,10.57,8.32,3.15,6.27,5,13.05,6.58,19.8C513.84,302.12,515.47,311.82,517.08,320Z" transform="translate(-254.05 -222.15)"/></svg>