<svg xmlns="http://www.w3.org/2000/svg" viewBox="0 0 682.32 1067.21"><defs><style>.a{fill:#ecf7e1;}.b{fill:#a9f0d8;}.c{fill:#3b3a30;}.d{fill:#aaf0d8;}.e{fill:#abf0d8;}.f{fill:#acf0d9;}.g{fill:#39382e;}</style></defs><path class="a" d="M235.26,971.23C195.59,965,193,962.5,187.32,921c-1-7.2-2.41-10.62-9.95-7-2.15,1-4.3,2.59-6.55,2.82-22,2.25-44.57,7-62.38-12.53-16.94-18.52-14-39.21-7.15-60.45,2.2-6.8,4-13.81,6.84-20.32,5-11.42,1.42-19.4-7.64-27.11-42.67-36.3-66.75-84-80.14-137.21-6.9-27.42-6.27-55.9-6.55-84.25-.35-34.32,17.6-60.15,34.69-86.86,7.7-12,16.18-23.68,22.76-36.31,12.42-23.8,8.44-33.69-12.28-50-34.08-26.83-53.09-64-57.29-106-4.6-46.07-1-91.26,26.71-132.68C54.93,123.39,87,94.23,134.77,86.13c20.94-3.56,34.18-12.42,38.12-34.65,2-11.51,7.7-22.48,12.46-33.37,4.23-9.7,9.75-19,22.45-18C219.88,1,222.58,11.37,225,20.35c4.06,15.24,7.17,30.78,9.81,46.34,2.17,12.74,7.73,17.06,21.73,19.69,3.82.72,6,1.91,9.1,2.59,46.56,10.26,62.1,1.78,79-42.2,4.26-11.1,9.41-21.9,14.71-32.56,4-8.13,9.8-15,20.11-14.12,11.15,1,15.05,9.2,18.89,18.72,7.36,18.23,5.5,37.88,7.05,56.31,1.92,22.73,14.2,30.83,30.89,37,17.41,6.4,31.77,16.65,46.9,27.12,41.17,28.48,50,72,56.94,115.83,3.44,21.67,2,44.77-1.2,66.65-2.59,17.86-11.42,34.28-25.21,47.73-18.23,17.8-17.44,21.37,5.87,33.33,21.81,11.2,43.86,21.67,64.73,34.83,26.61,16.78,39.47,42.85,52,69.5,25.28,53.95,34.28,111.49,38.63,170.41,3.64,49.39,4.56,99,6.33,148.33,1.28,35.84,2.87,73.22-3.76,109.07-9.7,52.45-41.58,76.14-95.78,69.1-43.93-5.7-82.71,6.68-120.9,24.28-47.1,21.7-94.49,41.08-147.87,38.75-32.2-1.4-55.1-18.09-72.87-43.14-7.57-10.66-6.68-22.55-.1-33.86,19.18-56.31,82.58-103.41,143-106.49,30.42-1.55,60,2.39,89.35,10.58,34.35,9.58,69,18.73,105.14,18,2.9-.06,5.8,0,8.69-.16-2.06-1.48-4.47-1.23-6.78-1.2-47.56.67-91.88-16.57-137.79-25-76.57-14.1-139.07,8.42-186.39,71.23C250.14,963.57,246.45,972.89,235.26,971.23Z"/><path class="b" d="M591.15,904.53c-46.63,1.8-90.45-12.22-135-22.87-60.66-14.5-117.34-6.9-168.87,31.68-21.44,16-33.86,39.35-51.77,57.93a4.92,4.92,0,0,1,.86.09,3.79,3.79,0,0,1,2.65,1.09,5.34,5.34,0,0,1,2,2.64,13.9,13.9,0,0,1,.52,8.25,9.5,9.5,0,0,1-.81,3.44,6.1,6.1,0,0,1-.34,1,4.41,4.41,0,0,0-.2.71c0,.19-.28,1.49-.27,1.51,9.92-24.84,18.94-30.53,31.65-43.66,54.13-55.91,118.6-68.39,191.81-47.84,41.88,11.75,84.06,22.76,128.25,20.13,5-.29,13.1,2.49,13.53-5.33C605.6,904.86,597.42,904.29,591.15,904.53Z"/><path class="c" d="M254.23,220.84c-2.5,1.59-5.2,3.22-7.82,5-5.88,3.94-11.58,8.87-17.67,11.44-8.05,3.39-17.38,12-26.32,2.87s-3.41-13.95,6.85-15.34c3.89-.53,8.19.83,11.83-.28,11.61-3.52,20.9-11.15,29.51-19.31,8.81-8.33,14.87-12.44,18.37,4.26,3,14.21,12,23.58,27.6,24.9,4.73.4,10.08,2,8.14,8.29-1.54,5-6.54,6.83-11.74,5.87-13-2.39-23.46-8.73-31-20C260.12,225.7,259.83,220.64,254.23,220.84Z"/><path class="d" d="M132.69,223.23c.23,6.23-3.18,8.38-6.5,10.47C96.07,252.64,70.55,277.4,43,299.64c-3.41,2.76-7,8.18-11.66,2.94-3.8-4.28-1.08-9.23,2.52-12.52,26.73-24.45,53.86-48.42,85.09-67.14C123.89,220,128.87,218.79,132.69,223.23Z"/><path class="e" d="M397.35,253.6c5.13-.36,9,2.06,12.62,5.41,16.83,15.56,36.17,27.75,55.19,40.29,6.95,4.58,12,9.94,6.62,16.87-5.2,6.66-12.22.08-16.21-3.38A529.66,529.66,0,0,0,397,269c-3.76-2.45-8.09-5.65-7.07-11.27C390.61,253.85,394.21,253.82,397.35,253.6Z"/><path class="d" d="M411,210.76c25.37,6.89,51.24,13.53,76.8,21.19,4.87,1.45,14.62,2.81,10.89,11.78-2.91,7-9.27,2.25-14.43.89-25.8-6.79-51.65-13.34-77.51-19.87-5.17-1.3-12.6-1.07-10.41-9C398.17,209.21,405.1,210.45,411,210.76Z"/><path class="f" d="M83.49,196c-11.25,0-19.14.12-27,0-4.63-.1-10.5.22-10.36-6.37.08-4,4.2-6.83,8.26-7.32,26.06-3.16,51.63,1.53,77.17,5.69,3.74.61,7.16,4.24,5.39,8.85-1.72,4.45-6.57,4.53-10.11,3.67C111.43,196.75,95.93,195,83.49,196Z"/><path class="d" d="M113.1,665.65c5.55.79,6.27,4.45,7.26,8.49,4.72,19.15,14.91,34.49,31.69,45.33,4.85,3.14,9,8,4.22,13.75-4.14,4.95-9.21.34-12.6-1.94-19.19-13-29.61-32.45-37.12-53.58C104.65,672.36,106,666.51,113.1,665.65Z"/><path class="c" d="M342.25,176.45c-19.25-5.22-36.75-9.94-50.62-22.55-4.34-4-7.72-9.34-3-14.16s9.47-2.07,13.72,2.89c10.82,12.63,26.25,16.34,41.56,19.56,5.53,1.16,12.05.29,10.05,8.77C352.17,178.56,345.61,176.19,342.25,176.45Z"/><path class="g" d="M195,167.16c-6.57.25-11.57-2.1-12.25-8.74-.55-5.4,4-5.43,8.49-5.31,29,.78,31.58-11.17,46.15-18.71,3.69-1.9,8.49-2.27,10.85,1.34,2.51,3.85-.81,7.1-3.84,9.93A78.15,78.15,0,0,1,195,167.16Z"/><path class="f" d="M165.77,685.89c5.52-.52,5.65,3.91,7.71,7.15,8,12.63,13.25,27,24,38,3.45,3.52,5.8,8.57,1.52,12.57-5.39,5-10.54,1.53-14-3.17a221.21,221.21,0,0,1-24.54-43.3C158,691.55,161.15,688.16,165.77,685.89Z"/><path class="b" d="M248,745.2c-1.4,6.77-6.57,7-10.55,4.23-12.49-8.88-19.9-21.95-24.92-36-1.66-4.62,4.48-10.58,8.24-6.22C230.89,719,239,732.38,248,745.2Z"/></svg>