<?xml version="1.0" encoding="utf-8"?>
<!-- Generator: Adobe Illustrator 26.1.0, SVG Export Plug-In . SVG Version: 6.00 Build 0)  -->
<svg version="1.0" id="Layer_1" xmlns="http://www.w3.org/2000/svg" xmlns:xlink="http://www.w3.org/1999/xlink" x="0px" y="0px"
	 viewBox="0 0 450.8 743.1" style="enable-background:new 0 0 450.8 743.1;" xml:space="preserve">
<style type="text/css">
	.st0{fill:#CBC0A3;}
	.st1{fill:#BE9EDA;}
	.st2{fill:#BF9FDA;}
	.st3{fill:#B2DE94;}
	.st4{fill:#BD9ED8;}
	.st5{fill:#A0C289;}
	.st6{opacity:0.46;fill:#78767A;}
	.st7{fill:#7B9A4C;}
	.st8{fill:#A68ACA;}
	.st9{fill:#977CBA;}
	.st10{fill:#A286C8;}
	.st11{fill:#554937;}
</style>
<g>
	<path class="st0" d="M280.1,742.6c-35.4,1.1-70.8,1.7-104.9-9.4c-47.7-15.6-78.9-49.1-98.1-94.4c-8-19-4.5-39.1-2.1-58.8
		c2.8-22.1,6.8-43.8,21.5-62c4.5-5.5,3.4-13.6,0.3-19.4c-7-13.3-5.7-24.9,3.9-36c8.1,0.1,16.2,0.1,24.3,0.2
		c2.3,9.6,10.4,15.5,21.7,13.8c18.1-2.6,36.1-1.8,54.2-0.6c5,0.7,9.9,4.5,14.9,0.2c13.5-0.4,27-0.9,40.5-1.3
		c3.4,2.8,6.7,2.9,9.6-0.7c22.4-0.9,45-0.4,66.6-8.4c8.1-3,9.9-7.1,5-14.1c0.3-3.1-1.1-6.7,2.9-8.5c8.6,0.3,16.4,3.1,23.6,7.5
		c15.5,9.5,20,25.6,12.9,44.9c-1.6,4.4-3.8,8.7-6.1,13.8c16.9,20.8,25.8,45.4,31.3,71.2c7.6,36.3,2.1,69.5-24.7,97.3
		c-5.8,6-10.6,12.8-15.9,19.3c-6.9,5.9-13.8,11.7-20.6,17.6C323.5,730.1,300.5,733.5,280.1,742.6z"/>
	<path class="st1" d="M270.9,138.6c7.3,2.1,10.5,7.1,9.3,14.5c-2,11.6-12.6,8.5-20.2,10.8c-2.9,8-4.5,16-2.7,25
		c6.4,3.7,12.4,8.2,11.8,17.2c-1.6,10.7-10.2,18.4-12.5,28.9c-14.8-3.9-14.8-3.9-24.1,13.8c-4.9,0.8-10.2,0-14.7,3
		c-8.2-18.5-7.2-21.7,8.1-34.5c3.8-3.2,6-8.1,10.5-14.6c-16.7-1.2-19.4-14.4-24.8-25.7c-5.1-10.8-3.9-19.7,4.7-28.1
		c9.9-9.7,9.2-15.3-2.3-23.7c-15.9-11.8-17.7-31.3-4-43.2c-14.9-29.1-11.6-52.5,8.7-61.3c4.4-8.5,3.7-23.1,18.5-20.3
		c14.6,2.7,9.8,16.8,12.3,26.6c0.6,0.5,1.2,1.4,1.8,1.4c19,1.5,23.8,8.4,18.4,27.2c-2.6,8.8-6.5,17.1-12.7,24.1
		c-4.4,5-6.8,10.6-4.5,17.7c7.5-0.5,16.5-5.4,20.7,3.4c5.5,11.6,2.3,23.2-5,33.5c-4.4,0-8.7-0.1-13.1,0
		c-12.1,0.4-14.9,4.6-10.9,16.8c-6.4-0.5-12.6,0.5-13.9,7.9c-1.4,7.8-1.9,16,6.2,21.4c2.9,1.9,5.9,2.4,8.9,0.8
		c2.8-1.4,4.3-4.4,3.2-7c-3.2-7.4-0.1-16-4.5-23.1c3.9,0.1,7.8-0.2,11.6,0.4C270.2,153.8,270.2,153.9,270.9,138.6z M256.1,54.8
		c-0.2-2.2-2.8-4.5-7.6-4.3c-5.5,0.3-16.1,12.9-15.9,19.1c0.2,5.8,3.9,7.3,8.8,7.1C247.8,76.4,256.6,64.9,256.1,54.8z M230.2,115
		c3.8-1.6,11.6-1.2,11.4-10.2c-0.1-6.7-5.6-7-10.5-6.5c-6,0.6-12.5,1.7-12.9,9.5C218,114.5,223.1,115.2,230.2,115z"/>
	<path class="st1" d="M273.3,206.2c2.8-1.4,5.5-2.8,8.4-4.2c-12.8-14.4-11.3-19.2,7.4-24.3c2.5-8.7-1.3-17.1-1.6-25.8
		c-0.2-6.7,0.2-13.2,8.2-15.2c8.5-2.1,14.1,2.2,16.7,9.8c2.5,7.4,5.8,13.5,13,17.5c6.4,3.5,8.5,10.1,8.1,17.1
		c16.3,9.1,16.7,10.4,8.7,28.9c7.1,6.3,5.4,13.5,5.1,22.9c-0.5,12.2-7.5,23.8-3.5,36.3c3.3,10.3-5.4,15.7-11.1,22.8
		c3,10.8,5.6,22-9.4,26.6c0.5-1.9,0.8-3.9,1.7-5.6c2.6-5,5.4-10.3,1.6-15.5c-4.4-6.1-10.1-0.7-15.2-0.5c0.7-1.3,1.3-3.8,2.1-3.9
		c12.8-0.9,13.2-12.2,16.5-20.4c1.7-4.3,2.5-10.8-3.8-13.3c-5.9-2.3-9.7,1.6-12.3,6.5c-2.6,4.9-4.8,12.7-9.3,13.1
		c-14.8,1.2-12.4,11.1-12.3,20.3c-3.9-2.3-7.9-4.6-11.8-6.9c-1-6.9-2.1-13.8-3.1-20.7c1.7-2.1,3.3-4.2,4.9-6.2
		c-14.6-22-14.6-22.2-0.3-31.4C275,226.2,266.8,218.3,273.3,206.2z"/>
	<path class="st2" d="M366.8,371.9c-9.4-2.9-14.3-11.1-20.2-17.8c-3.5-3.9-3.4-10.1,0.7-14.3c3.9-4,8.8-5.1,14.1-1.8
		c1.9,1.2,2.9,4.1,6.5,3.2c0.9-5.7,2-11.7-4.8-15.1c-5-2.5-9.5-5.3-8.1-11.5c1.4-6,5.8-9.2,12-10.1c1.1-0.2,2.2-0.7,3.4-1.1
		c-0.1-10.3-17.2-16.1-7.7-28.5c4.2-5.5,10.1-2.8,15.5-1.4c0.5,0.3,0.9,0.6,1.4,0.9c-0.3-0.5-0.6-1-0.8-1.4
		c-0.1-6.6-3.6-12.1-5.7-18c-5.3-15.2-2.1-21,14-23.8c1.2-6.6,2.2-13.6,3.9-20.5c1.6-6.2,5.7-11.1,12.4-10.9
		c6.6,0.2,9.1,6.1,10.2,11.6c1,5,0.8,10.3,0.7,15.4c0,5.8,1.1,11.3,5.7,15c6.4,5.2,6.5,11,3.8,18.1c-1.5,3.9-4.8,8.1-1.5,12.3
		c7.7,9.9,2.2,15.9-5.9,21.3c-2.6,1.7-5.8,2.8-7.2,6c-1.1,0.3-2.8-0.2-2.9,1.8c1.7,0.9,2.6,0,3.3-1.3c5.3,0.4,11,0.9,13.2,6.5
		c3.3,8.4-5.6,11.3-8.7,16.7c5.7,22.7-5.5,42.8-24,43.3c6-8.5-2.1-15.7-2.1-23.6c12.5-1.1,12.8-11,14.1-20c0.5-3.7-0.6-7.2-4.9-8.4
		c-4.5-1.2-8.4,0.6-10.1,4.5c-2.6,6.1-6.6,11.9-6.6,19c-9-0.3-10.3,5.1-9.1,12.4c1.1,7.1,6,12.4,9.2,18.5
		C376.3,370.8,371.8,372.3,366.8,371.9z"/>
	<path class="st3" d="M277.4,271.8c1,6.9,2.1,13.8,3.1,20.7c-1.2,23.9,1.6,47.6,2.3,71.5c0,9.9,0.3,19.8-0.2,29.7
		c-0.5,13,2.7,26.4-1.9,38.9c-4.2,11.3-5.2,21.9-0.1,32.9c-1.8,8-6.4,7-11.5,3.2c-1.1,2.1-2.1,3.8-3,5.5c-3,3.7-6.2,3.6-9.6,0.7
		c-0.9-3.3-1.7-6.6-2.6-9.9c-4.6-28.3-16.7-54.9-19.1-83.7c0.9-13,1.8-26,2.7-38.9c2.4-8.8,4.8-17.5,7.2-26.3
		c4.4-11.3,9-22.5,13.1-33.9C261.2,272.4,266.9,267.7,277.4,271.8z"/>
	<path class="st2" d="M186.8,273.4c-8.7,0.5-11.9-5.5-13.7-12.3c-1.8-6.9-4-14.1-3.6-21.1c1.2-24.7-16.8-43.1-20.7-65.9
		c-2.3-13-7.2-26.8,1.7-40.2c-13.3-32.6-13.1-36.3,2.2-42c0.2-5.1-3.6-5-7.1-5.9c-6.4-1.7-12-5-12.9-12.3c-0.5-4.1,1.5-8.2,5.4-9.9
		c5.9-2.7,11.7-2.1,16.4,3c2,2.2,5,2.2,7.4,3.3c8.9,4.1,15.1,9.7,12.1,21.3c-1.4,5.5-0.2,11.7-0.2,17.7c22.7,9.6,5.5,25.2,5.4,38.4
		c18.4,3.1,20.6,3.9,17,21.1c-3.2,15.3-1.4,29.6,1.7,45c10.1,9,8.7,37.2-3.5,53.5C191.8,269.2,189.3,271.3,186.8,273.4z
		 M186.9,186.1c0.2-6.3-0.7-11.5-7.2-10.8c-10.4,1.1-10.7,10.3-11.7,17.8c-0.8,5.8,3,10.7,8.9,10.2
		C188.7,202.5,183.6,191.2,186.9,186.1z"/>
	<path class="st4" d="M38.8,285.4c5.9-1.7,12.2-3.4,15.6,3.5c3.3,6.6-0.6,10.7-6.1,14.6c-7.7,5.5-8.5,13.8-6.6,23.2
		c10.4,3.5,12.4,10.1,5.4,19.4c-3,4,1.5,8.2-0.3,13.1c7.2-0.2,15.4-6.1,20.2,4.5c-4.3,6.6-8.4,13.6-9.3,21.9
		c-2.8,6.8-0.3,13.1,1.7,19.5c-3.1,6.9-8.4,9.2-15.5,7.1c-7.3-2.1-13.6-6.4-14.6-14.2c-1.1-8.4,7-10.4,12.6-13.3
		c-0.7-4.8-3.9-3.6-6.4-3.5c-15.8,0.4-25.7-8.3-27.4-24c-0.1-0.7,0.6-2,0.3-2.2c-18.7-14.3-1.7-29.2-0.7-43.7c0.1-1.6,2.3-3,3.4-4.4
		C5.2,294.5-1.8,282.5,8.9,269c-8.9-12.2-13.4-24.3-0.4-37.2c3-3,2.8-9,5-13.2c5.2-10.2,13.3-10.9,20.4-1.8
		c4.6,5.9,8.5,12.4,12.9,18.9c-0.4,4-0.9,8.3-5.1,11c-9.8,1.3-12,9.3-10.1,16c2.7,9.6,2.3,18.9,1.4,28.7
		C37.3,290.8,37.9,287.9,38.8,285.4z M20.6,321.5c-4.6,0.5-7.9,3.5-8.2,9.1c-0.4,5.3,10.6,16.4,16.5,16.9c5.9,0.5,10.3-1.8,11.6-7.8
		C41.4,335.1,27.2,321.9,20.6,321.5z"/>
	<path class="st5" d="M373.6,383.3l-0.2,0.1c19-4.2,34.7-15.3,50.6-25.6c6.5-4.2,13.3-9.1,20.6-3.5c7.7,5.8,7.1,15.1,4.5,23.1
		c-4.4,13.9-15,23.3-27,30.6c-16.1,9.8-34.3,14.6-51.8,20.8c-10.4,3.7-21,6.9-29.6,14.4c-4,1.8-2.6,5.4-2.9,8.5
		c-11.6-1.5-19.9,13.1-33.8,7c0-5.2,0-10.2,0-15.2l0.9-0.2l0.9,0c6-1.9,7.2-8,10.2-12.3c13.7-19.6,30-36,52.5-45.2"/>
	<path class="st5" d="M141.2,443.1c-4.7-5.2-9.5-10.4-14.2-15.5c-4-4.3-7-9.4-3.4-14.8c3.5-5.4,8.5-1.1,12.9-0.2
		c7.6,1.5,13.9,7.3,22.2,6.8c0,0-0.3,0-0.3,0c0.8,1.3,1.6,2.6,2.4,3.9c9.7-6,3.5-13.6,2-20.8c-1.8-22.3-2.7-44.6,0.4-66.8l-0.1,0.1
		c3.6-2.6,2-6.3,2.2-9.7c2.5-5.2,2.2-10.9,3.1-16.3c0.7-4.2,1.8-9.2,7.3-9.7c5.4-0.6,7.8,3.7,9.1,7.9c4.3,14,4.6,28.7,0.4,42.4
		c-5.4,17.8-2.9,35.4-2.8,53.2c0,2.9,0.4,5.7,4.2,6c-0.6,7.9-2.9,16.6,8.2,19.6c0.7,1.5,1.3,3,2,4.6c0.8,7.1,5.4,10.7,11.9,12.3
		c8.2,6.5,19.1,9.1,26.3,17.8c-3,9.7-10.8,5.4-16.8,5.9c-10.3-2.3-20.7-4.6-31-7c-4.8-3.4-8.3-10.1-16.8-4.3
		c-2.3-10.2-9.3-10.4-16.9-10.2c-3,0.1-6.1-1.4-9.1-2.2C143.2,444.9,142.2,444,141.2,443.1z"/>
	<path class="st2" d="M146.6,335.2c-5.1-15-10.7-29.6-20.2-42.6c-6-8.1-7-16.9,2.7-24c-5.3-10.6-24-17.6-7.7-33.4
		c-2.2-3.8-4.6-7.9-6.8-12.1c-1.5-2.8-4.3-6.2-3.7-8.5c2.8-10.1,3.1-20.4,4.2-30.7c0.4-3.7,3.6-5.2,6.8-5.8
		c8.6-1.7,26.3,12.8,26.5,22c0.2,5.6-0.6,11,6.1,14c4.2,1.9,4.1,6.6,3.7,10.6c-1.1,10.6-2.4,21.2-3.7,32.1
		c11.7,7.5,11.9,30.9-0.8,47.8c3,6.8,6.3,14,9.5,21.2c-0.1,3.2-0.2,6.5-0.2,9.7c0,0,0.1-0.1,0.1-0.1c-4,0.1-8,0.2-12,0.3
		C149.6,335.6,148.1,335.4,146.6,335.2z"/>
	<path class="st3" d="M93.6,436.1c14.3,3.9,28.7,7.9,43.1,11.7c2.6,0.7,5.6,0.7,7.5-2c3,0.8,6.1,2.2,9.1,2.2
		c7.6-0.2,14.6,0,16.9,10.2c8.5-5.8,12.1,0.9,16.8,4.3c-0.1,2.3-0.3,4.5-0.4,6.8c-20.6-1.4-41.3-1.7-61.5-6.5
		c-8.1-0.1-16.2-0.1-24.3-0.2c-15.2,0.4-30.1-1.9-43.9-8.2c-10.3-4.7-19.2-11.5-20.8-24c-0.5-4.2-1.2-9.1,3.1-12
		c4.5-3,9.1-1.7,13.4,0.9c8,5,15.3,11.3,24.9,13.4c3.9,0.9,7.7,1.9,11.7,0.9c0,0-0.2-0.1-0.2-0.1"/>
	<path class="st2" d="M143.4,378.7c-13.5-0.2-18.7-3.9-21.1-17.1c-1.1-6.1-5.1-7.5-9.6-9.2c-11-4.2-11-4.3-13-15.6
		c-18.5-9-18.5-9-11.1-22.6c-1.3-5.7-4.8-11-4.5-17.1c0.4-7.9,4.1-10.6,11.9-7.9c21.4,7.3,31.2,24.3,38.6,44.1
		c3.5,9.4,3.2,19.3,6.6,28.5C145,366.9,147.3,372.3,143.4,378.7z"/>
	<path class="st6" d="M280.1,742.6c20.4-9.1,43.3-12.5,61-27.7c6.9-5.9,13.8-11.7,20.6-17.6c10.1-1.4,18.9,1.3,26.2,8.4
		c3.2,3.1,7,3.1,10.9,3.9c5.6,1.1,10.6,3.4,10.7,10.7c0.1,7.2-5.2,8.7-10.2,9.5c-18.4,3-36.7,6.5-55.2,7.9
		C322.8,739.3,301.7,744.3,280.1,742.6z"/>
	<path class="st5" d="M234.8,381.3c2.3,28.8,14.4,55.4,19.1,83.7c-7.2-7.3-14.4-14.7-21.5-22c0-5.3-5.4-7.4-7.2-11.7
		c-8.4-15.7-20.1-29.8-23.8-47.9c-0.7-6.6,0.3-13,2.5-19.3C218.5,361.8,224.9,374.8,234.8,381.3z"/>
	<path class="st5" d="M280.6,465.5c-5.1-11-4.1-21.6,0.1-32.9c4.6-12.5,1.4-25.9,1.9-38.9c0.4-9.9,0.1-19.8,0.2-29.7
		c0.8-0.7,1.7-1.4,2.5-2.2c0.7-0.8,1.4-1.6,2.2-2.5l-0.3,0.1c3.7-0.9,5.9-5.1,10.2-4.7c12.2,3.5,10,13.3,8.4,21.5
		c-3.7,19.1-8.6,37.9-13,56.9c-1,3.4-1.9,6.7-2.9,10.1C286.7,450.6,289.4,460.4,280.6,465.5z"/>
	<path class="st7" d="M203.8,364.2c-2.1,6.3-3.1,12.7-2.5,19.3c-5.4,14.7-5.5,30.2-6.6,45.5c-11.1-3-8.8-11.7-8.2-19.6
		c0.3-16,4.7-31.3,7.4-46.8c5.4-30.3,1.1-59.9-7.2-89.1c2.5-2.1,5-4.3,7.5-6.4C205.4,298.6,209,331,203.8,364.2z"/>
	<path class="st8" d="M244.7,273.2c-1,5.5-2,11.1-3.1,16.6c-2.9,1.6-5.8,3.1-9.2,2.7c-14.3-7.3-18.9-17.4-15-32.7
		c0.6-2.6,0.3-5.4,0.4-8.2c4.5-3,9.8-2.2,14.7-3c9.3-17.7,9.3-17.7,24.1-13.8c-0.2,4.7-0.4,9.5-0.6,14.2c-7.1,2-3.5,7.9-4.4,12.2
		c-1,1.5-2,3-2.9,4.5c-3.1,0.7-7.6-1.3-8.5,3.6C239.5,272.3,242.2,273,244.7,273.2z"/>
	<path class="st8" d="M292.3,299.4c-0.1-9.2-2.5-19.1,12.3-20.3c4.4-0.4,6.7-8.2,9.3-13.1c2.6-4.9,6.3-8.8,12.3-6.5
		c6.3,2.5,5.5,9,3.8,13.3c-3.3,8.2-3.6,19.5-16.5,20.4c-0.8,0.1-1.4,2.5-2.1,3.9c-3,8.3-11.3,16.2-2.3,25.6c-1.5,0.3-3,0.5-4.4,0.8
		c-2-2.6-4.2-4.8-7.6-5.4C293.5,312.3,296.8,304.9,292.3,299.4z"/>
	<path class="st7" d="M88.9,433.6c0,0,0.2,0.1,0.2,0.1c-8.9-10.5-21.4-17.4-29.5-28.6c-2-6.4-4.6-12.7-1.7-19.5
		c18.5,26.9,43.4,45.3,74.3,55.9c3,1,5.8,2.4,9.1,1.6c1,0.9,2,1.8,3,2.8c-2,2.7-4.9,2.7-7.5,2c-14.4-3.8-28.7-7.8-43.1-11.7"/>
	<path class="st7" d="M158.3,419.2c0,0,0.3,0,0.3,0c-3.7-14.1-14.2-25.6-15.3-40.6c3.9-6.3,1.7-11.8-2.3-17
		c1.6-8.8-2.5-18.9,5.5-26.4c1.5,0.2,3,0.4,4.5,0.6c0.7,3.4,1.3,6.5,0.8,10.3c-2.7,19.9,0.1,38.9,10.9,56.3c1.4,7.1,7.7,14.7-2,20.8
		"/>
	<path class="st7" d="M368.6,385.8c-22.5,9.3-38.8,25.6-52.5,45.2c-3,4.4-4.2,10.4-10.2,12.3c0.4-3.1,0.7-6.1,1-9.2
		c11.4-23,30.7-38.4,50.6-53.3c3.4-2.6,6.2-6,9.3-9c5,0.4,9.5-1.1,13.9-3.2c0.9,0.1,1.8,0.3,2.6,0.4c-0.7,6.7-10.3,6.9-10.1,14.2
		c0,0,0.2-0.1,0.2-0.1"/>
	<path class="st9" d="M309.1,322.7c-9-9.4-0.7-17.3,2.3-25.6c5.1-0.2,10.8-5.6,15.2,0.5c3.8,5.2,1,10.5-1.6,15.5
		c-0.9,1.7-1.1,3.7-1.7,5.6C319.3,322.7,314.6,324.2,309.1,322.7z"/>
	<path class="st10" d="M244.4,151c-4-12.2-1.3-16.4,10.9-16.8c4.4-0.1,8.7,0,13.1,0c0.9,1.5,1.8,2.9,2.6,4.4
		c-0.7,15.3-0.7,15.2-15,12.8C252.1,150.8,248.2,151.1,244.4,151C244.3,151,244.4,151,244.4,151z"/>
	<path class="st9" d="M383.4,369.1c-0.9-0.1-1.8-0.3-2.6-0.4c-3.2-6.1-8-11.4-9.2-18.5c-1.2-7.3,0-12.7,9.1-12.4
		c2.5,1.6,4.9,3.3,7.4,4.9c0,7.9,8.1,15.1,2.1,23.6c-1.5,0.8-3.1,1.5-4.6,2.3c-1.1-1-1.9-0.6-2.4,0.6
		C383.1,369.2,383.4,369.1,383.4,369.1z"/>
	<path class="st7" d="M232.4,292.6c3.4,0.3,6.3-1.1,9.2-2.7c0.8,8.7,0.4,17.6,3.1,26.2c-2.4,8.8-4.8,17.5-7.2,26.3
		C234,325.9,231.8,309.4,232.4,292.6z"/>
	<path class="st7" d="M297,318.1c3.4,0.6,5.6,2.8,7.6,5.4c-2.4,10.4-4.9,20.8-7.3,31.2c-4.3-0.4-6.5,3.8-10.2,4.7
		C287.9,345,292.5,331.6,297,318.1z"/>
	<path class="st7" d="M38.8,285.4c-1,2.5-1.5,5.4-5.9,6.1c0.9-9.7,1.3-19.1-1.4-28.7c-1.9-6.7,0.3-14.7,10.1-16
		C40.8,259.7,37.3,272.4,38.8,285.4z"/>
	<path class="st0" d="M306.9,434.2c-0.3,3.1-0.7,6.1-1,9.2c0,0-0.9,0-0.9,0s-0.9,0.2-0.9,0.2c-4.7-0.1-9.4-0.2-14.1-0.3
		c1-3.4,1.9-6.7,2.9-10.1C297.5,433.5,302.2,433.8,306.9,434.2z"/>
	<path class="st7" d="M383.1,369.2c0.6-1.2,1.3-1.6,2.4-0.6C384.8,368.8,383.9,369,383.1,369.2z"/>
	<path class="st11" d="M289.9,443.2c4.7,0.1,9.4,0.2,14.1,0.3c0,5,0,10,0,15.2c13.9,6.1,22.1-8.5,33.8-7c4.8,7,3,11.1-5,14.1
		c-21.6,8-44.2,7.5-66.6,8.4c0.9-1.7,1.9-3.4,3-5.5c5.1,3.8,9.7,4.8,11.5-3.2C289.4,460.4,286.7,450.6,289.9,443.2z"/>
	<path class="st11" d="M232.3,443c7.2,7.3,14.4,14.7,21.5,22c0.9,3.3,1.7,6.6,2.6,9.9c-13.5,0.4-27,0.9-40.5,1.3
		c-0.2-2.5-0.9-5.2,2.1-6.7c6-0.5,13.8,3.8,16.8-5.9c-7.2-8.7-18.1-11.3-26.3-17.8C216.5,444.9,224.4,443.9,232.3,443z"/>
	<path class="st11" d="M125.1,462.8c20.2,4.8,40.9,5.1,61.5,6.5c5.7,0.4,13.3-3.4,14.4,6.8c-18.1-1.2-36.1-2.1-54.2,0.6
		C135.5,478.3,127.5,472.3,125.1,462.8z"/>
	<path class="st7" d="M201.1,476c-1.1-10.2-8.8-6.4-14.4-6.8c0.1-2.3,0.3-4.5,0.4-6.8c10.3,2.3,20.7,4.6,31,7
		c-3,1.5-2.4,4.2-2.1,6.7C210.9,480.6,206,476.8,201.1,476z"/>
	<path class="st10" d="M244.3,151c4.3,7.1,1.3,15.7,4.5,23.1c1.1,2.6-0.4,5.6-3.2,7c-3.1,1.6-6,1.1-8.9-0.8
		c-8.1-5.4-7.6-13.6-6.2-21.4C231.7,151.5,238,150.5,244.3,151C244.4,151,244.3,151,244.3,151z"/>
	<path class="st10" d="M256.1,54.8c0.5,10.1-8.3,21.6-14.6,21.9c-5,0.2-8.7-1.4-8.8-7.1c-0.2-6.1,10.4-18.8,15.9-19.1
		C253.3,50.3,255.9,52.7,256.1,54.8z"/>
	<path class="st10" d="M230.2,115c-7.2,0.2-12.2-0.5-11.9-7.2c0.4-7.8,6.8-8.9,12.9-9.5c4.9-0.5,10.4-0.2,10.5,6.5
		C241.8,113.8,234.1,113.4,230.2,115z"/>
	<path class="st10" d="M388.1,342.7c-2.5-1.6-4.9-3.3-7.4-4.9c0-7.1,3.9-12.9,6.6-19c1.6-3.8,5.5-5.7,10.1-4.5
		c4.3,1.2,5.5,4.7,4.9,8.4C400.9,331.7,400.5,341.6,388.1,342.7z"/>
	<path class="st10" d="M186.9,186.1c-3.3,5.1,1.8,16.4-10,17.2c-5.9,0.4-9.6-4.4-8.9-10.2c1-7.6,1.2-16.7,11.7-17.8
		C186.2,174.6,187.1,179.8,186.9,186.1z"/>
	<path class="st10" d="M20.6,321.5c6.5,0.4,20.8,13.6,19.9,18.1c-1.2,6-5.7,8.3-11.6,7.8c-5.9-0.5-16.9-11.6-16.5-16.9
		C12.8,325,16,322,20.6,321.5z"/>
	<path class="st0" d="M196.7,433.5c9.6,1,19.1-0.3,28.5-2.2c1.8,4.3,7.2,6.3,7.2,11.7c-7.9,0.9-15.8,1.9-23.8,2.8
		C202,444.2,197.5,440.7,196.7,433.5z"/>
	<path class="st7" d="M285.2,361.7c0.2-1.3-0.1-3,2.2-2.5C286.6,360.1,285.9,360.9,285.2,361.7z"/>
	<path class="st1" d="M244.7,273.2c-2.4-0.2-5.1-1-4.6-3.9c1-4.9,5.5-2.8,8.5-3.6C248.2,268.8,247.2,271.4,244.7,273.2z"/>
	<path class="st1" d="M251.6,261.3c0.8-4.3-2.7-10.1,4.4-12.2C256.7,254,257.1,258.7,251.6,261.3z"/>
</g>
</svg>
