<svg width="38" height="38" viewBox="0 0 38 38" fill="none" xmlns="http://www.w3.org/2000/svg">
<g clip-path="url(#clip0_1440_4257)">
<path d="M0.5 14.025L18.62 0.5L22.75 2.5L22 10.25L37.5 19.75L37.25 29.3375L29.8375 37.5L27.5525 36.23V30.105L22.7025 27.2975V23.2125L18.11 20.405V16.3225L13.25 13.5V17.5L10.75 18.75V23.5L6.88 25.51L7.135 31.125L7.645 31.38L6.88 32.145L0.755 28.8275L0.5 14.025Z" fill="#FBF9ED" stroke="#353630" stroke-width="2" stroke-linecap="round" stroke-linejoin="round"/>
<path d="M7.49999 31L7.24999 30.75L7.17749 25.125L9.74999 23.25V18.5L13.25 16.5L13.5 17.25C13.17 17.25 12.965 16.89 13.135 16.6075L13.25 16L13.5 13L18 16V20.61L21.6375 22.63C22.3225 23.01 22.75 23.735 22.75 24.52V27.0175L27.25 29.75L28.25 37.25L13.25 27.25L7.99999 31.75L7.49999 31Z" fill="#353630"/>
<path d="M18.5 1L3 12.75L1 14.25V14.75C1 14.75 3.8025 16.1525 5.12 16.9225C5.2 16.97 5.2975 16.9625 5.37 16.905L11 12.25C11.085 12.1825 11.25 12 11.5 12C11.6025 12 12.66 12.69 12.75 12.75C14.7625 14.0825 31.5 24.5 31.5 24.5L37 20C37 20 20.595 10.07 17.5075 7.9075C17.1675 7.67 16.7975 7.455 17 7.25C17.68 6.5625 17.75 6.5 22.25 2.75C21.75 2.5 19 1.25 18.5 1Z" fill="#EAAA99"/>
<path d="M37 20L31.75 25L20.25 17.5L26 13.25L37 20Z" fill="#EAAA99"/>
<path d="M22.25 2.74992L5.37 16.9049V13.4824L20.745 2.04492L22.25 2.74992Z" fill="#EAAA99"/>
</g>
<defs>
<clipPath id="clip0_1440_4257">
<rect width="38" height="38" fill="white"/>
</clipPath>
</defs>
</svg>
