<?xml version="1.0" encoding="utf-8"?>
<!-- Generator: Adobe Illustrator 26.1.0, SVG Export Plug-In . SVG Version: 6.00 Build 0)  -->
<svg version="1.1" xmlns="http://www.w3.org/2000/svg" xmlns:xlink="http://www.w3.org/1999/xlink" x="0px" y="0px"
	 viewBox="0 0 328.4 283.1" style="enable-background:new 0 0 328.4 283.1;" xml:space="preserve">
<style type="text/css">
	.st0{fill:#363630;}
	.st1{fill:none;stroke:#363630;stroke-width:8;stroke-miterlimit:10;}
	.st2{fill:#FFFDF4;}
</style>
<g id="Arm_Left">
	<g>
		<g>
			<path class="st0" d="M55.9,105.3c-1.2,3.4-2.3,6.9-3.5,10.3c-2.8,8.2-5.6,16.4-8.4,24.6c-3.4,9.9-6.8,19.8-10.2,29.7
				c-2.9,8.6-5.9,17.1-8.8,25.7c-1.4,4.2-3,8.3-4.3,12.5c0,0.1,0,0.1-0.1,0.2c-1,2.8,1.1,6.3,3.9,6.9c3.1,0.7,5.9-0.9,6.9-3.9
				c1.2-3.4,2.3-6.9,3.5-10.3c2.8-8.2,5.6-16.4,8.4-24.6c3.4-9.9,6.8-19.8,10.2-29.7c2.9-8.6,5.9-17.1,8.8-25.7
				c1.4-4.2,3-8.3,4.3-12.5c0-0.1,0-0.1,0.1-0.2c1-2.8-1.1-6.3-3.9-6.9C59.6,100.6,56.9,102.3,55.9,105.3L55.9,105.3z"/>
		</g>
	</g>
	
		<ellipse transform="matrix(0.2959 -0.9552 0.9552 0.2959 -184.2388 162.564)" class="st0" cx="18.1" cy="206.3" rx="14.5" ry="18.5"/>
</g>
<g id="Arm_Right">
	<ellipse transform="matrix(0.9552 -0.2959 0.2959 0.9552 -47.2925 101.5257)" class="st0" cx="311.8" cy="207" rx="16.8" ry="14"/>
	<g>
		<g>
			<path class="st0" d="M264.4,112c1.1,3.3,2.2,6.5,3.4,9.8c2.7,7.8,5.3,15.6,8,23.4c3.2,9.5,6.5,19,9.7,28.4
				c2.8,8.2,5.6,16.3,8.4,24.5c1.4,4,2.7,8,4.1,12c0,0.1,0,0.1,0.1,0.2c1,2.8,3.9,4.9,6.9,3.9c2.8-0.9,4.9-3.9,3.9-6.9
				c-1.1-3.3-2.2-6.5-3.4-9.8c-2.7-7.8-5.3-15.6-8-23.4c-3.2-9.5-6.5-19-9.7-28.4c-2.8-8.2-5.6-16.3-8.4-24.5c-1.4-4-2.7-8-4.1-12
				c0-0.1,0-0.1-0.1-0.2c-1-2.8-3.9-4.9-6.9-3.9C265.6,106,263.4,109,264.4,112L264.4,112z"/>
		</g>
	</g>
</g>
<g id="Leg_Left">
	
		<ellipse transform="matrix(0.2608 -0.9654 0.9654 0.2608 -189.4716 271.0894)" class="st0" cx="82.3" cy="259.3" rx="17.7" ry="24.8"/>
	<g>
		<g>
			<path class="st0" d="M113.9,212.3c-3,4.4-6,8.8-9,13.2c-4.8,7-9.5,14-14.3,20.9c-1.1,1.6-2.2,3.2-3.3,4.8c-1.4,2.1-1.6,5.4-1,7.7
				c0.6,2.3,2.4,4.8,4.6,6c2.3,1.2,5.1,1.8,7.7,1c2.6-0.8,4.4-2.4,6-4.6c3-4.4,6-8.8,9-13.2c4.8-7,9.5-14,14.3-20.9
				c1.1-1.6,2.2-3.2,3.3-4.8c1.4-2.1,1.6-5.4,1-7.7c-0.6-2.3-2.4-4.8-4.6-6c-2.3-1.2-5.1-1.8-7.7-1
				C117.3,208.6,115.4,210.1,113.9,212.3L113.9,212.3z"/>
		</g>
	</g>
</g>
<g id="Leg_Right">
	
		<ellipse transform="matrix(0.2608 -0.9654 0.9654 0.2608 -135.5784 352.6623)" class="st0" cx="162.5" cy="264.9" rx="17.7" ry="24.8"/>
	<g>
		<g>
			<path class="st0" d="M194.5,216.3c-3,4.4-6,8.8-9,13.2c-4.8,7-9.5,14-14.3,20.9c-1.1,1.6-2.2,3.2-3.3,4.8c-1.4,2.1-1.6,5.4-1,7.7
				c0.6,2.3,2.4,4.8,4.6,6c2.3,1.2,5.1,1.8,7.7,1c2.6-0.8,4.4-2.4,6-4.6c3-4.4,6-8.8,9-13.2c4.8-7,9.5-14,14.3-20.9
				c1.1-1.6,2.2-3.2,3.3-4.8c1.4-2.1,1.6-5.4,1-7.7c-0.6-2.3-2.4-4.8-4.6-6c-2.3-1.2-5.1-1.8-7.7-1C197.9,212.5,196,214,194.5,216.3
				L194.5,216.3z"/>
		</g>
	</g>
</g>
<g id="Body">
	<g>
		<g>
			<path class="st0" d="M245.6,218.3H90c-14,0-25.4-11.4-25.4-25.4V37.4C64.6,23.4,76,12,90,12h155.6c14,0,25.4,11.4,25.4,25.4V193
				C270.9,207,259.6,218.3,245.6,218.3z"/>
			<path class="st1" d="M245.6,218.3H90c-14,0-25.4-11.4-25.4-25.4V37.4C64.6,23.4,76,12,90,12h155.6c14,0,25.4,11.4,25.4,25.4V193
				C270.9,207,259.6,218.3,245.6,218.3z"/>
		</g>
		<g>
			<path class="st2" d="M237.6,210.3H82c-14,0-25.4-11.4-25.4-25.4V29.4C56.6,15.4,68,4,82,4h155.6c14,0,25.4,11.4,25.4,25.4V185
				C262.9,199,251.6,210.3,237.6,210.3z"/>
			<path class="st1" d="M237.6,210.3H82c-14,0-25.4-11.4-25.4-25.4V29.4C56.6,15.4,68,4,82,4h155.6c14,0,25.4,11.4,25.4,25.4V185
				C262.9,199,251.6,210.3,237.6,210.3z"/>
		</g>
	</g>
</g>
<g id="Sad_Mouth">
	<g>
		<g>
			<path class="st0" d="M139.3,178c0.1-0.3,0.3-0.7,0.5-1c0.1-0.1,0.4-0.5,0.1-0.1c0.1-0.1,0.3-0.3,0.4-0.4c0.1-0.1,0.2-0.2,0.3-0.3
				c0.2-0.1,0.1-0.1,0,0c0.1-0.1,0.2-0.1,0.2-0.2c0.3-0.2,0.6-0.3,0.9-0.5c0.3-0.2-0.3,0.1,0.2-0.1c0.2-0.1,0.3-0.1,0.5-0.2
				c0.3-0.1,0.7-0.2,1-0.2c-0.5,0.1,0.1,0,0.2,0c0.1,0,0.3,0,0.4,0c0.4,0,0.8,0,1.1,0c0.5,0-0.2-0.1,0.2,0c0.2,0,0.4,0.1,0.6,0.1
				c0.3,0.1,0.7,0.2,1,0.3c0.1,0,0.3,0.1,0.4,0.2c-0.4-0.2,0.2,0.1,0.2,0.1c0.3,0.2,0.6,0.3,0.9,0.5c0,0,0.5,0.4,0.3,0.2
				c-0.2-0.2,0.2,0.2,0.3,0.2c0.3,0.2,0.5,0.5,0.7,0.7c-0.3-0.4,0.1,0.1,0.1,0.2c0.1,0.1,0.2,0.2,0.2,0.4c0,0.1,0.3,0.7,0.1,0.2
				c0.1,0.2,0.1,0.4,0.2,0.6c0.7,2.3,4.3,1.3,3.6-1c-1.8-5.8-9.5-8.1-14.6-5.3c-1.4,0.8-2.6,2.1-3.3,3.6c-0.4,0.9-0.3,2,0.7,2.6
				C137.5,179.2,138.9,179,139.3,178L139.3,178z"/>
		</g>
	</g>
</g>
<g id="Normal_Mouth">
	<g>
		<g>
			<path class="st0" d="M141,176.6c2.7,0,5.5,0.1,8.2,0.1c0.4,0,0.8,0,1.2,0c1,0,1.9-0.9,1.9-1.9c0-1-0.8-1.9-1.9-1.9
				c-2.7,0-5.5-0.1-8.2-0.1c-0.4,0-0.8,0-1.2,0c-1,0-1.9,0.9-1.9,1.9C139.2,175.8,139.9,176.6,141,176.6L141,176.6z"/>
		</g>
	</g>
</g>
<g id="Happy_Mouth">
	<g>
		<g>
			<path class="st0" d="M135.7,171.2c1.2,2.2,4,3.3,6.3,3.5c1.3,0.2,2.7,0,3.9-0.4c1.6-0.6,2.8-1.6,3.9-3c0.6-0.8,0.2-2.1-0.7-2.6
				c-1-0.5-1.9-0.2-2.6,0.7c0.3-0.3,0,0-0.1,0.1c-0.1,0.1-0.2,0.2-0.3,0.4c-0.1,0.1-0.2,0.2-0.3,0.3c-0.1,0.1-0.1,0.1,0.1-0.1
				c-0.1,0.1-0.1,0.1-0.2,0.2c-0.2,0.1-0.4,0.3-0.7,0.4c-0.1,0-0.1,0.1-0.2,0.1c-0.1,0.1-0.1,0,0.2-0.1c0,0.1-0.3,0.1-0.4,0.1
				c-0.2,0.1-0.5,0.1-0.7,0.2c0,0-0.4,0-0.4,0.1c0.3,0,0.3,0,0.1,0c-0.1,0-0.1,0-0.2,0c-0.3,0-0.5,0-0.8,0c-0.2,0-0.5-0.1-0.7-0.1
				c0.3,0,0.3,0,0.2,0c-0.1,0-0.1,0-0.2,0c-0.1,0-0.2,0-0.3-0.1c-0.2-0.1-0.5-0.1-0.7-0.2c-0.1,0-0.3-0.1-0.4-0.1
				c-0.4-0.1,0.2,0.1,0,0c-0.2-0.1-0.4-0.2-0.6-0.3c-0.2-0.1-0.4-0.2-0.5-0.3c-0.3-0.2,0.1,0,0.1,0.1c0,0-0.2-0.2-0.2-0.2
				c-0.1-0.1-0.2-0.3-0.4-0.4c-0.2-0.2,0.2,0.4,0.1,0.1c0-0.1-0.1-0.2-0.1-0.2c-0.5-0.9-1.7-1.2-2.6-0.7
				C135.5,169.2,135.2,170.2,135.7,171.2L135.7,171.2z"/>
		</g>
	</g>
</g>
<g id="Eyes">
	<circle class="st0" cx="195.9" cy="140.7" r="9.3"/>
	<circle class="st0" cx="100.8" cy="140.7" r="9.3"/>
</g>
</svg>
