<?xml version="1.0" encoding="UTF-8"?><svg xmlns="http://www.w3.org/2000/svg" viewBox="0 0 157.26 162.19"><defs><style>.d{fill:#eaaa99;}.e{fill:#fcf9ed;}.f{fill:#363630;}</style></defs><g id="a"/><g id="b"><g id="c"><g><polygon class="e" points="56.4 113.94 34.5 135.84 2.5 120 2.5 59.49 76.78 2.91 96.32 12.19 93.77 43.36 154.76 81.01 154.76 123.36 122.23 158.9 56.4 113.94"/><path class="f" d="M77.08,5.82l16.61,7.88-2.53,30.97,61.1,37.73v39.98l-30.41,33.22L56.1,110.7l-22.1,22.1-29-14.36V60.73L77.08,5.82m-.61-5.82l-2.42,1.85L1.97,56.75l-1.97,1.5v63.3l2.78,1.38,29,14.36,3.22,1.59,2.54-2.54,19.17-19.17,62.32,42.57,3.58,2.45,2.93-3.2,30.41-33.22,1.31-1.43v-44.71l-2.37-1.47-58.49-36.12,2.28-27.92,.28-3.44-3.12-1.48L79.22,1.31l-2.75-1.31h0Z"/></g><polygon class="d" points="77.08 5.82 5 60.73 25.37 72.74 49.1 52.46 129.92 103.71 152.26 82.41 72.65 33.25 93.69 13.71 77.08 5.82 77.08 5.82"/><path class="f" d="M77.08,5.82l16.61,7.88-2.53,30.97,61.1,37.73v39.98l-30.41,33.22L56.1,110.7l-22.1,22.1-29-14.36V60.73L77.08,5.82m-.61-5.82l-2.42,1.85L1.97,56.75l-1.97,1.5v63.3l2.78,1.38,29,14.36,3.22,1.59,2.54-2.54,19.17-19.17,62.32,42.57,3.58,2.45,2.93-3.2,30.41-33.22,1.31-1.43v-44.71l-2.37-1.47-58.49-36.12,2.28-27.92,.28-3.44-3.12-1.48L79.22,1.31l-2.75-1.31h0Z"/><polygon class="f" points="30.96 131.3 30.96 107.2 43.11 97.2 43.11 79.21 53.22 71.83 53.15 54.97 77.29 70.33 77.29 84.72 94.95 95.97 94.97 112.05 114.84 123.98 114.84 150.83 56.1 110.7 34 132.81 30.96 131.3"/></g></g></svg>