<svg xmlns="http://www.w3.org/2000/svg" viewBox="0 0 532.83 1173.56"><defs><style>.a{fill:#0b0044;}.b{fill:#45517e;}.c{fill:#45507e;}.d{fill:#a56c49;}.e{fill:#010919;}.f{fill:#1f2b5c;}.g{fill:#44507e;}.h{fill:#45517f;}.i{fill:#a62c54;}.j{fill:#aa8b4f;}</style></defs><path class="a" d="M289.82,191.81c36.28,4.2,64.64,30.53,100.76,35.83,17.64,2.58,35.09,1.25,52.62,1.89,16.92.63,34-1.45,50.67,3.3,16.33,4.65,26.43,19.55,22.82,35.43-5.13,22.61-13,44.14-26.46,63.31-19.52-7.95-12.43-27.8-19.12-43.76-20.52,1.68-40.74-6.62-62.88,3.53-27.77,12.74-57.58,21.34-87.67,27.88-11,2.4-22.16,4.93-33.05-.74-2.69-2.6-1.64-4.91.55-7.13,9.26-5.37,22.84-3.28,28-15.62-.57-9.67-8-10.54-14.46-12.57-7.8-2.46-13.78-6.2-12-15.88,3.74-4,10-1.3,13.76-5.31-2.36-30.48-26.53-39-62.65-22.14-.87,4.55,4.88,5.53,5.17,9.44-2.23,8.13-9.39,7.24-15.26,7.88-24.18,2.65-42.41,17.24-61.46,30.21-3.28,2.24-4.83,5.66-3.72,10.34,5.32,10.37,13.73,3.42,21.07,3,5.13,3.13,5.08,7.48,2.9,12.34-8,7.08-17.94,4.47-27.15,5-10.62.65-20.56,3.15-25.88,13C120.05,361,104.1,391.11,91.18,422.72a11.62,11.62,0,0,0,.64,10.22c14.62,11.23,30.88-6.58,46.84.7,8.23,15.77-9.63,33.09,3.24,50.7,41.83-4.61,77.36-28.5,114.48-44.42,12,8.31,12.63,19.73,14.63,29.87,6.35,32.14,24.42,57.42,49.23,76.39,20,15.28,31.9,31.48,28.28,57.11a11.18,11.18,0,0,0,3.25,9.5c12.77-1.88,17.37-18.07,34.24-19.53,16.8,30.35,25.07,63.33,21.13,99.38-9,28.09-14.35,57.08-23.31,83.33,4.3,5.76,8.32,5.36,12,6,37.39,6.29,51.47,25.46,45.78,63.36-1.41,9.44-2.86,18.65-.58,28.06a26.66,26.66,0,0,1,1.44,5.55,33.11,33.11,0,0,1-15.51,11.75c-6.2.08-10.64-3.61-14.93-7.3-19.58-16.88-41.6-28.28-67.66-31.06-6.36-.68-12.37-2.58-16.85-9.76,1.47-22.09,20.72-42.7,11.48-67.62-10.21-2.29-13.48,6.47-19.5,10.18-15.5,9.53-28.12,25.94-49.73,21-9.19-12.14-4.76-26.78-7.22-40.15-1.13-6.13-.29-12.54-1.39-18.78-8.07-46.08-23.06-60.54-75.87-71.76,21.71,6.12,43.51,9,57.36,26.85,13.54,17.47,18.29,38.36,18.93,60.2.46,15.57,5.49,31,1.1,46.71-6.05,10.32-17,12.43-27,15.88-21.93,7.56-44.87,10.31-67.6,13.83,59.79-5.52,114.47-26.1,164.25-59.23,9.05,15.47,9.05,15.47-14,69,31,4.68,61.72,11,79.48,40.3,10.14,16.72,14.21,49.26,8.92,64.25C371,946.43,342,914.55,301.46,919.41c2.16,15.13,19.08,18.44,21.09,32-11.43,13.93-25.39-5.63-37.3,3.68-3.94,8.42,2.87,13.51,7.7,18.79,10.64,11.64,22.41,22.22,33.13,33.79,4.85,5.24,12.43,9.57,9.56,18.92-6.62-3.37-13.61-6.17-19.8-10.2-41.67-27.13-88.33-36.57-136.94-39.76q-47.84-3.14-95.56-7.77c-13.87-1.36-20.89-2.51-39.4-12.11-5.9-3.06-8.51-5.6-17.45-10.93-10.51-24.21-8.72-50.45-12.28-75.6C7.79,824.84,2.74,779.27.36,733.38-1.38,700,2.61,673.76,27.1,644.18s39.54-59,54.05-91.15C67.68,483.37,52,414.42,41.65,344.67c-7.72-52.2,4.21-103.5,21.53-153.26C85.64,126.9,123.87,71.1,159.67,13.92c4.51-7.2,10.08-11.15,19.21-6.23,9.12,45.38,2.44,92.21,11,138.47C217.11,98.71,230.55,43.69,267,0,280,11,278.77,23.75,279.09,36.06c-4.2,43.42-22,83.86-27.64,127-.88,6.77-3.95,13.39-.71,20.88C261.82,194.63,276.79,188.68,289.82,191.81Z"/><path class="a" d="M407.65,703.48l19.56,4.07c-3.76,15.67-7.52,31.34-11.39,47.44,14.83,8,32.81,4,48.47,10.79,22.72,64.41,24,80.55-21.86,113.13l-.77-.88c-5.53-19.17,2.4-38.47-1.14-58-4.63-25.45-9.52-32.15-34.68-36.47-6.27-1.08-12.51-1.47-18.54-9.71C392.2,751.34,394.05,725.92,407.65,703.48Z"/><path class="b" d="M289.82,191.81c-17.08,11.12-32,2.05-48.87-3.4C249.84,146,256.45,105,269.68,65.52c3.27-9.77,4.51-18.4,9.41-29.46,7.78,26,6.74,52.72,7.55,79.38C287.41,140.9,283.35,166.59,289.82,191.81Z"/><path class="c" d="M175.33,34.25c7,55.25-.12,110.53,1.92,165.52-17.5,7.72-32.1-1.24-46.93-1.4C126.71,180.73,159.3,53.81,175.33,34.25Z"/><path class="d" d="M286.45,316.59c-33.62,18.56-66.66,22.65-98.46-4-.92-3.66.18-8-3.53-10.7-5.83.45-10.87-.55-12.92-7.07.4-6.69,5-7.52,10.17-7.46,5.15.91,8.59,4.66,12.57,7.59,22.86,16.85,44.54,9.53,53-17.89,1.09-3.55,1.61-7.3,4.1-10.3,5.23-3.83,11-3.27,15.88-.23,14.38,9,25.94,22.27,42.78,25.44-1.36,14.81-14.71,13.36-20,20.74Z"/><path class="e" d="M184.22,289.28c-3.26,1.25-9.25-2.65-11.18,4.16,0,6.52,7.57,4.31,11.42,8.48,2.59,2.81,3.16,8.29,3.53,10.69-7.3,14.8-19.52-7.21-27.15-8.57-3.87-7-3.43-12.37-1.17-17.73,25.91-18.7,52.37-35.87,85.4-38.36,16.95-5.67,36,2,45.33,18.14,2.62,6.73,5.86,12,14.62,11.89,8.92-.12,15.38,4.53,18.6,14.7-5,15.93-18.24,19-33.41,19-4.75-15.29,17.54-7,17-18.57-5.37-7.24-10.69.57-16.75-1.19-11-9.69-17.33-22.71-37.94-25.21C226.65,264.9,206.24,279.54,184.22,289.28Z"/><path class="f" d="M407.65,703.48c-5.33,23.23-10.66,46.46-16.09,70.11,3.9,5.49,10.16,6.17,16.51,5.81,21.09-1.22,33,11.77,35.68,29.49,3.42,22.71,5.45,46.33-2.09,69.14-14.41-5.37-8.54-18.24-6.22-25.66,4.75-15.19.26-28.87-2.32-42.76-3.51-18.88-20.1-20.09-35.07-22.37-6.58-1-14.15,1.82-20.6-7.61,10.3-27.51,13.36-58.83,26.4-87.37C408.13,695,407.51,699.35,407.65,703.48Z"/><path class="g" d="M290.24,267.18c-13.69-9.6-28.14-17.29-45.32-18.13l-16.83-3.45c10.14-19.1,28.56-17.74,43.47-19.14,22.05-2.08,33.53,10.62,40.21,38.71C305.61,276.66,297.49,267.27,290.24,267.18Z"/><path class="f" d="M271.32,806.05,267,812.22,260.08,810c-.08-27-2.2-54-8.74-80.14-7.17-28.66-32.45-46-66.41-49-5.91-.52-12.81,2.15-17.14-4.69,1-7.29,6.73-7.22,11.34-6.46,61.12,10,82,24.89,88.12,89.56C268.72,774.85,267.46,790.67,271.32,806.05Z"/><path class="h" d="M271.32,806.05c26.5-7.27,46.59-25.23,67.81-45.54,16.41,32.59-.34,56.73-10.13,84.53q58.51,3.45,97.92,45.62c5.27,7,6.56,12.27,11.34,18.49,36,30.24,64.65,66.41,86.76,107.86,6,11.21,10.69,22.59,5.72,36-13,1.3-22.27-10.88-35.06-9.5,7.4,63.73-18.23,125.07-55.25,130.07-11.38-40.47-28.61-78.07-58.61-108.9-14.07-14.45-31.17-24.92-46.18-38.06-15.48-16.5-30.9-33.06-46.49-49.47-6.49-6.83-13.39-13.3-14-24,14.42-16.23,29.08.64,45.49,0-9-13.57-22.94-20-30.67-35,21.54-13.66,40.85-1.77,59.33,5.26,19.14,7.29,37.1,17.7,56.85,27.37,4.55-23.33-12.21-40.16-10.86-59.46-22.75-29.36-53.51-37.29-91.09-36.1,15.54-23.07,32.46-42.82,30.69-72.6C278.57,822.35,218.36,841.77,152,840.93c35.48-12.15,74.25-12.84,108.09-30.91C264.71,808.13,267.28,807.33,271.32,806.05Z"/><path class="b" d="M286.45,316.59c51.56.37,96.62-22.19,145.31-39.92,11.32,11,26.83,5,43.26,2.4,8.21,16.95.56,38.33,15.21,52.5-25.53,37.28-62.8,57.42-104.77,72-3.8,10.18,3.65,17.5,8.5,24.78,17.75,26.61,35.65,53.16,54.64,78.88,23.14,31.34,24.16,62.75,9.46,98.65-13.36,32.64-20.8,67.71-30.85,101.71-6.9,4.83-13,1.58-19.19-1.8-4.35-3.57-4-8.61-4.17-13.49,1.55-34-7.66-65.58-19.88-97.49-14.32,7.86-20.5,23.86-36.11,29.41-9.49-11.62-3.81-24.56-4.31-36.38-.43-10-1.45-19.11-10.32-24.91Q274,524.21,262,454.52c-.61-3.48-2.56-6.73-4.31-11.16-39.42,20.75-77.83,42.68-122.58,48.29-8.53-21-.22-37.57,3.25-56-19-.13-37.45,14.83-55.93.42,1.79-19.16,12.86-34.18,20.23-50.61,4.12-9.18,10.09-17.69,13.15-27.17,11.5-35.68,34-52.84,72.23-45.71C220.17,329.9,253.18,326.41,286.45,316.59Z"/><path class="i" d="M184.06,290.38c13.76-18.73,48.79-25.67,68.42-23.71,1.89,18.62-5.65,33.8-23,40.24C210.61,313.93,195.05,307.39,184.06,290.38Z"/><circle class="j" cx="220.36" cy="283.99" r="10.22"/></svg>